<?xml version="1.0" encoding="UTF-8" standalone="no"?>
<!DOCTYPE svg PUBLIC "-//W3C//DTD SVG 1.1//EN" "http://www.w3.org/Graphics/SVG/1.1/DTD/svg11.dtd">
<!-- Created with Vectornator (http://vectornator.io/) -->
<svg height="100%" stroke-miterlimit="10" style="fill-rule:nonzero;clip-rule:evenodd;stroke-linecap:round;stroke-linejoin:round;" version="1.1" viewBox="-26.2702 -22.5 90 21.6612" width="100%" xml:space="preserve" xmlns="http://www.w3.org/2000/svg" xmlns:vectornator="http://vectornator.io" xmlns:xlink="http://www.w3.org/1999/xlink">
<defs/>
<g id="Layer">
<g opacity="1">
<path d="M55.2754-6.04511C55.2754-5.30286 55.9873-4.70046 56.8645-4.70046C57.2857-4.70046 57.6909-4.84165 57.9881-5.09444C58.2868-5.34589 58.4537-5.68878 58.4537-6.04511L58.4537-8.06208L63.2211-8.06208M55.2754-11.4237L58.4537-11.4237L58.4537-14.113M56.8645-1.33884C55.1785-1.33884 53.5623-1.90493 52.3705-2.91342C51.177-3.92325 50.508-5.29076 50.508-6.71743L50.508-13.4407C50.508-16.411 53.3542-18.8193 56.8645-18.8193C60.3749-18.8193 63.2211-16.411 63.2211-13.4407M49.7135-5.00604L48.6249-5.00604C48.4914-5.00604 48.3643-5.05885 48.2705-5.15273C48.1768-5.24661 48.1243-5.37276 48.1243-5.50625M43.3569-14.0523L43.3569-3.33819C43.3569-2.23362 44.2516-1.33882 45.3577-1.33882M50.508-18.0247L48.1243-18.0247L48.1243-20.4084L43.3569-20.4084L43.3569-18.0247L40.9732-18.0247L40.9732-14.0523M28.2602-13.4407C28.2602-14.8673 28.9292-16.2349 30.1227-17.2433C31.3145-18.2518 32.9307-18.8193 34.6167-18.8193C38.1271-18.8193 40.9732-16.411 40.9732-13.4407M33.0276-6.71743C33.0276-6.3611 33.1945-6.01821 33.4932-5.76677C33.7904-5.51397 34.1956-5.37278 34.6167-5.37278C35.0378-5.37278 35.4431-5.51397 35.7402-5.76677C36.039-6.01821 36.2059-6.3611 36.2059-6.71743L36.2059-13.4407C36.2059-13.797 36.039-14.1385 35.7402-14.3913M30.1211-2.91342C28.9292-3.92191 28.2602-5.28941 28.2602-6.71474M13.958-13.2098L13.958-1.33896M18.7254-21.9976L13.958-21.9976L13.958-19.1019M28.2602-21.9976L23.4928-21.9976L23.4928-10.8737M18.7254-10.8737L23.4928-1.33896M7.60151-17.2303C7.60151-17.2303 7.92729-17.5544 8.28325-17.9104C8.86328-18.492 9.65308-18.8194 10.4747-18.8194L13.958-18.8194M7.60151-18.8194L2.83412-18.8194L2.83412-1.33896M-5.11153-7.69548L-9.87892-7.69548M-1.93327-7.49207C-1.93327-7.063-1.93327-6.10635-1.93327-6.10635C-1.93327-6.10635-1.93327-5.31178-3.5224-5.31178C-5.11153-5.31178-5.11153-6.10635-5.11153-6.10635M-9.87892-11.8892C-9.87892-11.2758-9.50547-10.7244-8.93656-10.4955M2.83412-15.6411C2.83412-15.6411 2.83412-18.8194-3.5224-18.8194C-9.87892-18.8194-9.87892-15.6411-9.87892-15.6411M-1.93327-14.052L-1.93327-12.4629M2.83412-8.26915C2.83412-8.88256 2.46068-9.43398 1.89177-9.66123C0.0324875-10.4049-4.0039-12.0195-4.92242-12.3866M-9.87892-4.51722C-9.87892-4.51722-9.87892-3.14356-8.07277-2.20239M-19.4137-1.33896L-21.0028-10.8737M-14.6463-1.33896L-14.6463-10.8737M-17.8246-12.4629L-16.2354-21.9976L-9.87892-21.9976M-25.7702-1.33896L-25.7702-21.9976L-19.4137-21.9976" fill="none" opacity="1" stroke="#b2b1b0" stroke-linecap="butt" stroke-linejoin="round" stroke-width="1"/>
<path d="M-25.7702-1.34375L-20.989-1.34375L-21.0028-10.8737M40.9798-14.0625L43.3548-14.0625M52.386-2.9375C53.5779-1.92901 55.1687-1.34375 56.8548-1.34375C60.3652-1.34375 63.2298-3.74842 63.2298-6.71875L63.2298-8.0625M55.261-11.4375L55.261-14.125C55.2611-14.8672 55.9776-15.4687 56.8548-15.4687C57.732-15.4687 58.4485-14.8672 58.4485-14.125M-1.92647-12.4687L2.82353-12.4375M33.0423-6.71875L33.0423-13.4687C33.0423-13.8251 33.181-14.1535 33.4798-14.4062C33.7769-14.6577 34.1837-14.8125 34.6048-14.8125C35.0259-14.8125 35.4326-14.6577 35.7298-14.4062M-9.86397-7.71875L-9.86397-11.9062C-9.86397-11.2928-9.49538-10.7288-8.92647-10.5C-7.06719-9.75788-2.11397-7.78125-2.11397-7.78125M-19.4265-1.34375L-16.239-1.34375L-14.6452-10.875M-14.6452-1.34375L-9.86397-1.34375L-9.87892-4.43319M-17.8327-12.4687L-19.4265-22M-8.16786-2.26393C-7.23117-1.74559-5.77718-1.34375-3.52022-1.34375C2.8363-1.34375 2.83413-4.51722 2.83412-4.51722M-9.86397-15.6562L-9.86397-22M7.60478-17.25L7.60478-18.8437M13.9485-1.34375L18.7298-1.34375L18.7254-10.8737M-5.11397-6.125L-5.11397-7.71875M-5.11397-12.6875C-5.11397-13.115-5.11397-14.0625-5.11397-14.0625C-5.11397-14.0625-5.10935-14.875-3.52022-14.875C-1.93109-14.875-1.92648-14.0625-1.92647-14.0625M2.82353-1.34375L7.60478-1.34375L7.60478-10.1562C7.60478-10.9778 7.931-11.795 8.51103-12.375C9.09265-12.9566 9.87534-13.2813 10.6985-13.2812C12.3131-13.2812 13.958-13.2574 13.958-13.2574M23.4798-10.875L18.7298-22M23.4798-1.34375L28.261-1.34375L28.2602-6.71474M30.136-2.9375C31.3279-1.92901 32.9203-1.34375 34.6048-1.34375C36.2893-1.34375 37.9129-1.92901 39.1048-2.9375C40.2966-3.94599 40.9798-5.29342 40.9798-6.71875L40.9798-14.0625M28.261-13.4687L28.261-22M48.136-18.0312L48.136-20.4375M45.3548-1.34375C47.2172-1.34375 49.6985-1.34375 49.6985-1.34375L49.6985-5.03125M48.261-5.15625C48.1673-5.25013 48.136-5.39777 48.136-5.53125C48.136-7.42794 48.136-14.0625 48.136-14.0625L50.511-14.0625L50.511-18.0312M55.261-6.0625L55.261-9.40625L63.2298-9.40625L63.2298-13.4687" fill="none" opacity="1" stroke="#ffffff" stroke-linecap="round" stroke-linejoin="round" stroke-width="1"/>
<path d="M-25.7702-21.9887L-25.7702-1.3325L-20.989-1.3325L-20.989-10.8637L-19.4265-1.3325L-16.239-1.3325L-14.6452-10.8637L-14.6452-1.3325L-9.86397-1.3325L-9.86397-4.52C-9.86397-4.52-9.87674-1.3325-3.52022-1.3325C2.8363-1.3325 2.82354-4.52 2.82353-4.52L2.82353-1.3325L7.60478-1.3325L7.60478-10.145C7.60478-10.9666 7.931-11.7837 8.51103-12.3637C9.09265-12.9454 9.87534-13.27 10.6985-13.27C12.3131-13.27 13.9485-13.27 13.9485-13.27L13.9485-1.3325L18.7298-1.3325L18.7298-10.8637L23.4798-1.3325L28.261-1.3325L28.261-6.7075C28.261-5.28217 28.9442-3.93474 30.136-2.92625C31.3279-1.91776 32.9203-1.3325 34.6048-1.3325C36.2893-1.3325 37.9129-1.91776 39.1048-2.92625C40.2966-3.93474 40.9798-5.28217 40.9798-6.7075L40.9798-13.4575C40.9798-16.4278 38.1152-18.8325 34.6048-18.8325C32.9187-18.8325 31.3279-18.2472 30.136-17.2387C28.9426-16.2303 28.261-14.8842 28.261-13.4575L28.261-21.9887L23.4798-21.9887L23.4798-10.8637L18.7298-21.9887L13.9485-21.9887L13.9485-18.8325L10.4798-18.8325C9.6582-18.8325 8.87231-18.5079 8.29228-17.9262C7.93632-17.5703 7.60477-17.2388 7.60478-17.2387L7.60478-18.8325L2.82353-18.8325L2.82353-15.645C2.82353-15.645 2.8363-18.8325-3.52022-18.8325C-9.87674-18.8325-9.86398-15.645-9.86397-15.645L-9.86397-21.9887L-16.239-21.9887L-17.8327-12.4575L-19.4265-21.9887L-25.7702-21.9887ZM43.3548-20.4262L43.3548-18.02L40.9798-18.02L40.9798-14.0512L43.3548-14.0512L43.3548-3.3325C43.3548-2.22793 44.2488-1.3325 45.3548-1.3325C47.2172-1.3325 49.6985-1.3325 49.6985-1.3325L49.6985-5.02L48.636-5.02C48.5025-5.02 48.3548-5.05112 48.261-5.145C48.1673-5.23888 48.136-5.38652 48.136-5.52C48.136-7.41669 48.136-14.0512 48.136-14.0512L50.511-14.0512L50.511-18.02L48.136-18.02L48.136-20.4262L43.3548-20.4262ZM56.8548-18.8325C53.3444-18.8325 50.511-16.4278 50.511-13.4575L50.511-6.7075C50.511-5.28083 51.1926-3.93608 52.386-2.92625C53.5779-1.91776 55.1687-1.3325 56.8548-1.3325C60.3652-1.3325 63.2298-3.73717 63.2298-6.7075L63.2298-8.05125L58.4485-8.05125L58.4485-6.05125C58.4485-5.69492 58.2785-5.33395 57.9798-5.0825C57.6826-4.8297 57.2759-4.7075 56.8548-4.7075C55.9776-4.7075 55.261-5.309 55.261-6.05125L55.261-9.395L63.2298-9.395L63.2298-13.4575C63.2298-16.4278 60.3652-18.8325 56.8548-18.8325ZM56.8548-15.4575C57.732-15.4575 58.4485-14.856 58.4485-14.1137L58.4485-11.4262L55.261-11.4262L55.261-14.1137C55.2611-14.856 55.9776-15.4575 56.8548-15.4575ZM-3.52022-14.8637C-1.93109-14.8637-1.92648-14.0512-1.92647-14.0512L-1.92647-12.4575L2.82353-12.4262L2.82353-8.27C2.82353-8.8834 2.45494-9.449 1.88603-9.67625C0.0267493-10.42-4.00795-12.0279-4.92647-12.395C-5.04089-12.4411-5.11397-12.5523-5.11397-12.6762C-5.11397-13.1037-5.11397-14.0512-5.11397-14.0512C-5.11397-14.0512-5.10935-14.8638-3.52022-14.8637ZM34.6048-14.8012C35.0259-14.8013 35.4326-14.6464 35.7298-14.395C36.0285-14.1422 36.1985-13.8138 36.1985-13.4575L36.1985-6.7075C36.1985-6.35117 36.0285-6.02145 35.7298-5.77C35.4326-5.5172 35.0259-5.36375 34.6048-5.36375C34.1837-5.36375 33.7769-5.51721 33.4798-5.77C33.181-6.02145 33.0423-6.35117 33.0423-6.7075L33.0423-13.4575C33.0423-13.8138 33.181-14.1422 33.4798-14.395C33.7769-14.6464 34.1837-14.8012 34.6048-14.8012ZM-9.86397-11.895C-9.86397-11.2816-9.49538-10.7176-8.92647-10.4887C-7.06719-9.74663-3.03249-8.13868-2.11397-7.77C-1.99955-7.7255-1.92647-7.61111-1.92647-7.48875C-1.92647-7.05968-1.92647-6.11375-1.92647-6.11375C-1.92647-6.11375-1.93109-5.30125-3.52022-5.30125C-5.10935-5.30125-5.11396-6.11375-5.11397-6.11375L-5.11397-7.7075L-9.86397-7.7075L-9.86397-11.895Z" fill="#f6f6f6" fill-rule="nonzero" opacity="1" stroke="none"/>
</g>
</g>
</svg>
